<!-- public/crown.svg -->
<svg viewBox="0 0 64 64" xmlns="http://www.w3.org/2000/svg" fill="#FFFFFF">
  <path d="M58.8 47.2c-5.8-3-8.6-11.4-10.4-17.4-1.4-4.4-2.6-8.8-3.6-13.2-0.4-1.6-1.4-2.8-2.8-3.4-1.4-0.6-3-0.4-4.4 0.6-2 1.4-3.6 3-4.8 4.8-2.6-2-5.4-3.6-8.6-4.4-3.2-0.8-6.2-0.6-9 0.4-2.8 1-5.2 2.8-6.8 5-1.4-2.4-3.6-4-6.4-4.2-2.8-0.2-5.4 0.8-7.4 2.6-2 1.8-3 4.2-3.2 6.6-0.2 2.4 0.4 4.6 1.6 6.6 0.4 0.6 1 1.2 1.8 1.4 0.6 0.2 1.2 0.2 1.8 0 0.4-0.2 0.8-0.4 1.2-0.8 0.8-0.6 1.4-1.2 2-2 0.2-0.2 0.2-0.2 0.2-0.4 1.6 5.4 3.6 10.4 6 15.4 2.2 4.8 4.6 9 7.4 12.8H4.4c-2.2 0-4 1.8-4 4 0 2.2 1.8 4 4 4h55.2c2.2 0 4-1.8 4-4 0-2.2-1.8-4-4-4H56.4c2.8-3.8 5.2-8 7.4-12.8 2.2-4.6 4.2-9.4 6-14.4 0.6 0.8 1.2 1.4 2 2 0.4 0.4 0.8 0.6 1.2 0.8 0.6 0.2 1.2 0.2 1.8 0 0.8-0.2 1.4-0.8 1.8-1.4 1.2-1.8 1.6-4 1.6-6.6 0-2.4-1-4.8-3.2-6.6-2-1.8-4.6-2.8-7.4-2.6-2.8 0.2-5 1.8-6.4 4.2-1.6-2.2-4-3.8-6.8-5-2.8-1-5.8-1.2-9-0.4-3.2 0.8-6 2.4-8.6 4.4-1.2-1.8-2.8-3.4-4.8-4.8-1.4-0.8-3-1-4.4-0.6-1.4 0.6-2.4 1.8-2.8 3.4-1 4.4-2.2 8.8-3.6 13.2-1.8 6-4.6 14.4-10.4 17.4-1.2 0.6-2.6 0.8-3.8 1.4-0.6 0.2-1.2 0.4-1.8 0.8-0.6 0.2-1 0.6-1.4 1-0.4 0.4-0.8 0.8-1 1.2-0.2 0.6-0.4 1-0.6 1.6-0.2 0.6-0.2 1.2 0 1.8 0.2 0.6 0.4 1.2 0.8 1.6 0.4 0.4 1 0.8 1.6 1 0.6 0.2 1.2 0.4 1.8 0.4h55.2c0.6 0 1.2-0.2 1.8-0.4 0.6-0.2 1.2-0.6 1.6-1 0.4-0.4 0.8-1 0.8-1.6 0.2-0.6 0.2-1.2 0-1.8-0.2-0.6-0.4-1.2-0.8-1.6-0.4-0.4-1-0.8-1.6-1-0.6-0.2-1.2-0.4-1.8-0.8-1.2-0.4-2.4-0.8-3.6-1.2z"/>
</svg>
